<?xml version="1.0" encoding="UTF-8"?>
<svg width="32px" height="32px" viewBox="0 0 32 32" version="1.1" xmlns="http://www.w3.org/2000/svg" xmlns:xlink="http://www.w3.org/1999/xlink">
    <!-- Generator: Sketch 50.2 (55047) - http://www.bohemiancoding.com/sketch -->
    <title>icons/eraser</title>
    <desc>Created with Sketch.</desc>
    <defs></defs>
    <g id="icons/eraser" stroke="none" stroke-width="1" fill="none" fill-rule="evenodd">
        <g id="near_me-24px" transform="translate(7.500000, 7.500000) scale(-1, 1) translate(-7.500000, -7.500000) ">
            <polygon id="Shape" points="0 0 15 0 15 15 0 15"></polygon>
            <polygon id="Shape" stroke="#000000" fill="#E0E0E0" fill-rule="nonzero" stroke-linecap="round" stroke-linejoin="round" points="13 2 2 6.60166667 2 7.20055556 6.18 8.82 7.79333333 13 8.39222222 13"></polygon>
        </g>
        <g id="cancel-24px" transform="translate(8.000000, 7.000000)">
            <path d="M12,2 C6.47,2 2,6.47 2,12 C2,17.53 6.47,22 12,22 C17.53,22 22,17.53 22,12 C22,6.47 17.53,2 12,2 Z M17,15.59 L15.59,17 L12,13.41 L8.41,17 L7,15.59 L10.59,12 L7,8.41 L8.41,7 L12,10.59 L15.59,7 L17,8.41 L13.41,12 L17,15.59 Z" id="Shape" stroke="#000000" fill="#D0021B" fill-rule="nonzero"></path>
            <polygon id="Shape" points="0 0 24 0 24 24 0 24"></polygon>
        </g>
    </g>
</svg>