<?xml version="1.0" encoding="UTF-8"?>
<svg width="24px" height="24px" viewBox="0 0 24 24" version="1.1" xmlns="http://www.w3.org/2000/svg" xmlns:xlink="http://www.w3.org/1999/xlink">
    <!-- Generator: Sketch 50.2 (55047) - http://www.bohemiancoding.com/sketch -->
    <title>icons/rect</title>
    <desc>Created with Sketch.</desc>
    <defs></defs>
    <g id="icons/rect" stroke="none" stroke-width="1" fill="none" fill-rule="evenodd">
        <g id="crop_free-24px">
            <polygon id="Shape" points="0 0 24 0 24 24 0 24"></polygon>
            <path d="M3,5 L3,9 L5,9 L5,5 L9,5 L9,3 L5,3 C3.9,3 3,3.9 3,5 Z M5,15 L3,15 L3,19 C3,20.1 3.9,21 5,21 L9,21 L9,19 L5,19 L5,15 Z M19,19 L15,19 L15,21 L19,21 C20.1,21 21,20.1 21,19 L21,15 L19,15 L19,19 Z M19,3 L15,3 L15,5 L19,5 L19,9 L21,9 L21,5 C21,3.9 20.1,3 19,3 Z" id="Shape" stroke="#000000" fill="#E0E0E0" fill-rule="nonzero"></path>
        </g>
    </g>
</svg>